HIERARCHY
ROOT SpineBase
{
  OFFSET 0.000000 0.000000 0.000000
  CHANNELS 6 Xposition Yposition Zposition Zrotation Xrotation Yrotation
  JOINT SpineMid
  {
    OFFSET -0.000000 28.821431 0.000000
    CHANNELS 3 Zrotation Xrotation Yrotation
    JOINT SpineShoulder
    {
      OFFSET -0.150566 21.369431 -0.785119
      CHANNELS 3 Zrotation Xrotation Yrotation
      JOINT Neck
      {
        OFFSET -0.120036 7.102623 -0.599961
        CHANNELS 3 Zrotation Xrotation Yrotation
        JOINT Head
        {
          OFFSET -4.293192 12.577463 3.667215
          CHANNELS 3 Zrotation Xrotation Yrotation
          End Site
          {
            OFFSET 0 0 0
          }
        }
      }
      JOINT ShoulderLeft
      {
        OFFSET -9.568440 -3.306356 11.835795
        CHANNELS 3 Zrotation Xrotation Yrotation
        JOINT ElbowLeft
        {
          OFFSET -9.867472 -17.045352 16.528684
          CHANNELS 3 Zrotation Xrotation Yrotation
          JOINT WristLeft
          {
            OFFSET -6.375326 -23.861831 9.075520
            CHANNELS 3 Zrotation Xrotation Yrotation
            JOINT HandLeft
            {
              OFFSET -1.800526 -17.028764 7.224989
              CHANNELS 3 Zrotation Xrotation Yrotation
              JOINT HandTipLeft
              {
                OFFSET -3.129136 -8.228099 2.394935
                CHANNELS 3 Zrotation Xrotation Yrotation
                End Site
                {
                  OFFSET 0 0 0
                }
              }
              JOINT ThumbLeft
              {
                OFFSET -3.676009 2.538680 1.560128
                CHANNELS 3 Zrotation Xrotation Yrotation
                End Site
                {
                  OFFSET 0 0 0
                }
              }
            }
          }
        }
      }
      JOINT ShoulderRight
      {
        OFFSET 5.101976 -3.242201 -12.190357
        CHANNELS 3 Zrotation Xrotation Yrotation
        JOINT ElbowRight
        {
          OFFSET 6.806817 -25.813968 -7.156695
          CHANNELS 3 Zrotation Xrotation Yrotation
          JOINT WristRight
          {
            OFFSET -1.963181 -19.126055 -4.493065
            CHANNELS 3 Zrotation Xrotation Yrotation
            JOINT HandRight
            {
              OFFSET -1.024224 -9.330150 -0.417419
              CHANNELS 3 Zrotation Xrotation Yrotation
              JOINT HandTipRight
              {
                OFFSET -0.933398 -6.658138 -2.161707
                CHANNELS 3 Zrotation Xrotation Yrotation
                End Site
                {
                  OFFSET 0 0 0
                }
              }
              JOINT ThumbRight
              {
                OFFSET -2.572144 -0.380952 -2.607001
                CHANNELS 3 Zrotation Xrotation Yrotation
                End Site
                {
                  OFFSET 0 0 0
                }
              }
            }
          }
        }
      }
    }
  }
  JOINT HipLeft
  {
    OFFSET -4.203250 -0.195659 2.552303
    CHANNELS 3 Zrotation Xrotation Yrotation
    JOINT KneeLeft
    {
      OFFSET 3.309072 -31.750715 6.386998
      CHANNELS 3 Zrotation Xrotation Yrotation
      JOINT AnkleLeft
      {
        OFFSET 14.236084 -38.111045 5.292484
        CHANNELS 3 Zrotation Xrotation Yrotation
        JOINT FootLeft
        {
          OFFSET -6.761920 -5.334754 -6.232445
          CHANNELS 3 Zrotation Xrotation Yrotation
          End Site
          {
            OFFSET 0 0 0
          }
        }
      }
    }
  }
  JOINT HipRight
  {
    OFFSET 2.418531 2.579910 -9.054923
    CHANNELS 3 Zrotation Xrotation Yrotation
    JOINT KneeRight
    {
      OFFSET 12.917193 -35.841096 -4.930592
      CHANNELS 3 Zrotation Xrotation Yrotation
      JOINT AnkleRight
      {
        OFFSET 13.171674 -37.986683 4.186663
        CHANNELS 3 Zrotation Xrotation Yrotation
        JOINT FootRight
        {
          OFFSET -2.197339 -7.655575 -3.525160
          CHANNELS 3 Zrotation Xrotation Yrotation
          End Site
          {
            OFFSET 0 0 0
          }
        }
      }
    }
  }
}
MOTION
Frames: 5
Frame Time: 0.033333
66.710996 79.578750 265.173332 0.000000 0.000000 60.295769 -0.000000 0.000000 -60.295769 -0.000000 0.000000 0.000000 -0.000000 0.000000 0.000000 0.000000 0.000000 0.000000 -0.000000 0.000000 0.000000 -0.000000 0.000000 0.000000 -0.000000 0.000000 0.000000 -0.000000 0.000000 0.000000 0.000000 0.000000 0.000000 0.000000 0.000000 0.000000 -0.000000 0.000000 0.000000 -0.000000 0.000000 0.000000 -0.000000 0.000000 0.000000 -0.000000 0.000000 0.000000 0.000000 0.000000 0.000000 0.000000 0.000000 0.000000 -0.000000 0.000000 -60.295769 -0.000000 0.000000 0.000000 -0.000000 0.000000 0.000000 0.000000 0.000000 0.000000 -0.000000 0.000000 -60.295769 -0.000000 0.000000 0.000000 -0.000000 0.000000 0.000000 0.000000 0.000000 0.000000
66.777788 79.498440 265.272215 0.031123 -0.131202 60.362925 0.098648 0.091932 -60.362968 -0.000000 0.000000 0.000000 -0.000000 0.000000 0.000000 0.000000 0.000000 0.000000 -0.000000 0.000000 0.000000 -0.000000 0.000000 0.000000 3.307027 0.938440 1.285518 -3.401405 -3.583330 -0.315322 0.000000 0.000000 0.000000 0.000000 0.000000 0.000000 1.188503 1.129070 -0.043257 -1.043432 -2.382736 0.119337 -0.141845 1.253303 -0.093524 -0.000000 0.000000 0.000000 0.000000 0.000000 0.000000 0.000000 0.000000 0.000000 0.098648 0.091932 -60.362968 -0.000000 0.000000 0.000000 0.939832 -0.726300 -0.174540 0.000000 0.000000 0.000000 0.098648 0.091932 -60.362968 -0.000000 0.000000 0.000000 -0.000000 0.000000 0.000000 0.000000 0.000000 0.000000
66.843191 79.425055 265.355935 0.057690 -0.240429 60.401138 0.180560 0.168915 -60.401283 -0.000000 0.000000 0.000000 -0.000000 0.000000 0.000000 0.000000 0.000000 0.000000 -0.306281 -1.018708 0.287100 0.206001 0.192107 -0.109937 6.965613 2.832261 2.329320 -6.996555 -6.262975 -1.076108 0.000000 0.000000 0.000000 0.000000 0.000000 0.000000 2.347076 2.216423 -0.110501 -2.087873 -4.406672 0.199909 -0.249041 2.188423 -0.160639 -0.163549 1.317467 -0.129214 0.000000 0.000000 0.000000 0.000000 0.000000 0.000000 -0.020960 1.012362 -60.541766 0.833511 -0.239315 0.144302 1.441441 -1.070659 -0.322144 0.000000 0.000000 0.000000 0.180560 0.168915 -60.401283 -0.000000 0.000000 0.000000 0.799931 0.871476 -0.623633 0.000000 0.000000 0.000000
66.907204 79.358595 265.424493 0.079738 -0.327848 60.411504 0.245724 0.231220 -60.411772 -0.000000 0.000000 0.000000 -0.000000 0.000000 0.000000 0.000000 0.000000 0.000000 -0.473945 -1.374813 0.326067 0.290349 0.293383 -0.117556 10.320409 4.147303 3.364496 -10.202914 -7.951143 -2.032830 0.000000 0.000000 0.000000 0.000000 0.000000 0.000000 3.439316 3.225035 -0.196935 -3.090013 -6.113633 0.248233 -0.331056 2.883950 -0.208683 -0.308785 1.724169 -0.136111 0.000000 0.000000 0.000000 0.000000 0.000000 0.000000 0.018180 1.305532 -60.584855 1.047581 -0.329390 0.179146 1.482910 -1.012681 -0.447770 0.000000 0.000000 0.000000 0.245724 0.231220 -60.411772 -0.000000 0.000000 0.000000 1.139083 1.202679 -0.879938 0.000000 0.000000 0.000000
66.969827 79.299060 265.477888 0.097299 -0.393601 60.394771 0.294150 0.279043 -60.395153 -0.000000 0.000000 0.000000 -0.000000 0.000000 0.000000 0.000000 0.000000 0.000000 -0.652318 -1.627884 0.295571 0.362305 0.398057 -0.092921 12.634645 5.056859 4.043260 -12.106769 -8.544715 -2.797841 0.000000 0.000000 0.000000 0.000000 0.000000 0.000000 4.424666 4.115166 -0.294829 -4.004534 -7.514750 0.272166 -0.393912 3.390837 -0.242185 -0.497161 1.966968 -0.105174 0.000000 0.000000 0.000000 0.000000 0.000000 0.000000 0.091427 1.448205 -60.575215 1.117954 -0.397776 0.186999 1.063876 -0.551681 -0.548065 0.000000 0.000000 0.000000 0.294150 0.279043 -60.395153 -0.000000 0.000000 0.000000 1.437112 1.465684 -1.098326 0.000000 0.000000 0.000000
